<svg xmlns="http://www.w3.org/2000/svg" viewBox="0 0 30 30">
    <path d="M15,2C8.925,2,4,6.925,4,13c0,7.234,7.152,10.697,8.048,11.503c0.915,0.823,1.671,2.668,1.976,3.714 c0.148,0.508,0.564,0.765,0.976,0.776c0.413-0.012,0.828-0.269,0.976-0.776c0.305-1.046,1.061-2.89,1.976-3.714 C18.848,23.697,26,20.234,26,13C26,6.925,21.075,2,15,2z M12.564,11.984c-0.177-0.015-0.455-0.191-0.537-0.886 c-0.044-0.373,0.131-0.583,0.237-0.649c0,0-0.264-0.602-0.264-1.199C12,7.474,12.879,6,15,6c1.145,0,1.5,0.812,1.5,0.812 c1.023,0,1.5,1.122,1.5,2.438c0,0.656-0.264,1.199-0.264,1.199c0.106,0.066,0.281,0.276,0.237,0.649 c-0.082,0.695-0.36,0.871-0.537,0.886c-0.068,0.648-0.711,1.478-0.936,1.599v1.083c0.449,1.46,3.715,0.745,4.375,3.333H9.125 c0.66-2.588,3.926-1.873,4.375-3.333v-1.083C13.275,13.463,12.632,12.633,12.564,11.984z"/>
</svg>
