<svg xmlns="http://www.w3.org/2000/svg" viewBox="0 0 30 30">
    <path style="line-height:normal;text-indent:0;text-align:start;text-decoration-line:none;text-decoration-style:solid;text-decoration-color:#000;text-transform:none;block-progression:tb;isolation:auto;mix-blend-mode:normal" d="M 15 3 C 8.3844276 3 3 8.3844276 3 15 C 3 21.615572 8.3844276 27 15 27 C 21.615572 27 27 21.615572 27 15 C 27 8.3844276 21.615572 3 15 3 z M 15 5 C 20.534692 5 25 9.4653079 25 15 C 25 20.534692 20.534692 25 15 25 C 9.4653079 25 5 20.534692 5 15 C 5 9.4653079 9.4653079 5 15 5 z M 10.5 13 A 1.5 1.5 0 0 0 9 14.5 A 1.5 1.5 0 0 0 10.5 16 A 1.5 1.5 0 0 0 12 14.5 A 1.5 1.5 0 0 0 10.5 13 z M 19.5 13 A 1.5 1.5 0 0 0 18 14.5 A 1.5 1.5 0 0 0 19.5 16 A 1.5 1.5 0 0 0 21 14.5 A 1.5 1.5 0 0 0 19.5 13 z M 11.994141 18.992188 A 1.0001 1.0001 0 0 0 11.474609 20.808594 C 12.278916 21.393119 13.483333 22 15 22 C 16.516667 22 17.721548 21.393632 18.525391 20.808594 A 1.0002946 1.0002946 0 1 0 17.347656 19.191406 C 16.777499 19.606368 15.983333 20 15 20 C 14.016667 20 13.222084 19.606881 12.650391 19.191406 A 1.0001 1.0001 0 0 0 12.09375 18.992188 A 1.0001 1.0001 0 0 0 11.994141 18.992188 z" font-weight="400" font-family="sans-serif" white-space="normal" overflow="visible"></path>
</svg>
